<svg width="153" height="153" viewBox="0 0 153 153" fill="none" xmlns="http://www.w3.org/2000/svg">
<g clip-path="url(#clip0_102_8)">
<g filter="url(#filter0_biii_102_8)">
<path d="M93.6839 35H60.5401C56.3768 35 53 38.3739 53 42.5336V101.393C53 105.553 56.3768 108.927 60.5401 108.927H93.6839C97.8472 108.927 101.224 105.553 101.224 101.393V42.5336C101.224 38.3739 97.8472 35 93.6839 35Z" fill="#3680FF" fill-opacity="0.14"/>
</g>
<path d="M80.1226 45.8397H74.1014C72.6097 45.8397 71.3892 44.6203 71.3892 43.1298C71.3892 41.6393 72.6097 40.4199 74.1014 40.4199H80.1226C81.6144 40.4199 82.8349 41.6393 82.8349 43.1298C82.8349 44.6203 81.6144 45.8397 80.1226 45.8397Z" fill="#3680FF"/>
<path d="M87.6627 116.298H66.5613C63.1846 116.298 60.4587 113.574 60.4587 110.201V108.764H93.7653V110.201C93.7653 113.574 91.0259 116.298 87.6627 116.298Z" fill="#3680FF"/>
<path d="M67.8636 91V61.9091H77.2528C79.3172 61.9091 81.0407 62.3068 82.4233 63.1023C83.8153 63.8883 84.8617 64.9583 85.5625 66.3125C86.2727 67.6667 86.6278 69.1913 86.6278 70.8864C86.6278 72.5814 86.2775 74.1108 85.5767 75.4744C84.8759 76.8286 83.8343 77.9034 82.4517 78.6989C81.0691 79.4848 79.3504 79.8778 77.2955 79.8778H69.9091V77.4915H77.2244C78.7491 77.4915 80.0133 77.2074 81.017 76.6392C82.0208 76.0616 82.7689 75.2756 83.2614 74.2812C83.7633 73.2869 84.0142 72.1553 84.0142 70.8864C84.0142 69.6174 83.7633 68.4858 83.2614 67.4915C82.7689 66.4972 82.0161 65.7159 81.0028 65.1477C79.9991 64.5795 78.7254 64.2955 77.1818 64.2955H70.5199V91H67.8636Z" fill="#3680FF"/>
</g>
<defs>
<filter id="filter0_biii_102_8" x="17" y="-1" width="120.224" height="145.927" filterUnits="userSpaceOnUse" color-interpolation-filters="sRGB">
<feFlood flood-opacity="0" result="BackgroundImageFix"/>
<feGaussianBlur in="BackgroundImageFix" stdDeviation="18"/>
<feComposite in2="SourceAlpha" operator="in" result="effect1_backgroundBlur_102_8"/>
<feBlend mode="normal" in="SourceGraphic" in2="effect1_backgroundBlur_102_8" result="shape"/>
<feColorMatrix in="SourceAlpha" type="matrix" values="0 0 0 0 0 0 0 0 0 0 0 0 0 0 0 0 0 0 127 0" result="hardAlpha"/>
<feOffset dy="4"/>
<feGaussianBlur stdDeviation="18"/>
<feComposite in2="hardAlpha" operator="arithmetic" k2="-1" k3="1"/>
<feColorMatrix type="matrix" values="0 0 0 0 1 0 0 0 0 1 0 0 0 0 1 0 0 0 0.36 0"/>
<feBlend mode="normal" in2="shape" result="effect2_innerShadow_102_8"/>
<feColorMatrix in="SourceAlpha" type="matrix" values="0 0 0 0 0 0 0 0 0 0 0 0 0 0 0 0 0 0 127 0" result="hardAlpha"/>
<feOffset dy="4"/>
<feGaussianBlur stdDeviation="2"/>
<feComposite in2="hardAlpha" operator="arithmetic" k2="-1" k3="1"/>
<feColorMatrix type="matrix" values="0 0 0 0 1 0 0 0 0 1 0 0 0 0 1 0 0 0 0.15 0"/>
<feBlend mode="normal" in2="effect2_innerShadow_102_8" result="effect3_innerShadow_102_8"/>
<feColorMatrix in="SourceAlpha" type="matrix" values="0 0 0 0 0 0 0 0 0 0 0 0 0 0 0 0 0 0 127 0" result="hardAlpha"/>
<feOffset dy="1"/>
<feGaussianBlur stdDeviation="0.5"/>
<feComposite in2="hardAlpha" operator="arithmetic" k2="-1" k3="1"/>
<feColorMatrix type="matrix" values="0 0 0 0 1 0 0 0 0 1 0 0 0 0 1 0 0 0 0.05 0"/>
<feBlend mode="normal" in2="effect3_innerShadow_102_8" result="effect4_innerShadow_102_8"/>
</filter>
<clipPath id="clip0_102_8">
<rect width="48.224" height="81.2979" fill="white" transform="translate(53 35)"/>
</clipPath>
</defs>
</svg>
