<svg width="1227" height="847" viewBox="0 0 1227 847" fill="none" xmlns="http://www.w3.org/2000/svg">
<path fill-rule="evenodd" clip-rule="evenodd" d="M0.999964 -4L1 847L0 847L-3.55811e-05 -4L0.999964 -4Z" fill="url(#paint0_linear_408_1199)"/>
<path fill-rule="evenodd" clip-rule="evenodd" d="M112.471 -4L112.471 847L111.471 847L111.471 -4L112.471 -4Z" fill="url(#paint1_linear_408_1199)"/>
<path fill-rule="evenodd" clip-rule="evenodd" d="M223.942 -4L223.942 847L222.942 847L222.942 -4L223.942 -4Z" fill="url(#paint2_linear_408_1199)"/>
<path fill-rule="evenodd" clip-rule="evenodd" d="M335.413 -4L335.413 847L334.413 847L334.413 -4L335.413 -4Z" fill="url(#paint3_linear_408_1199)"/>
<path fill-rule="evenodd" clip-rule="evenodd" d="M446.884 -4L446.884 847L445.884 847L445.884 -4L446.884 -4Z" fill="url(#paint4_linear_408_1199)"/>
<path fill-rule="evenodd" clip-rule="evenodd" d="M558.355 -4L558.355 847L557.355 847L557.355 -4L558.355 -4Z" fill="url(#paint5_linear_408_1199)"/>
<path fill-rule="evenodd" clip-rule="evenodd" d="M669.826 -4L669.826 847L668.826 847L668.826 -4L669.826 -4Z" fill="url(#paint6_linear_408_1199)"/>
<path fill-rule="evenodd" clip-rule="evenodd" d="M781.297 -4L781.297 847L780.297 847L780.297 -4L781.297 -4Z" fill="url(#paint7_linear_408_1199)"/>
<path fill-rule="evenodd" clip-rule="evenodd" d="M892.768 -4L892.768 847L891.768 847L891.768 -4L892.768 -4Z" fill="url(#paint8_linear_408_1199)"/>
<path fill-rule="evenodd" clip-rule="evenodd" d="M1004.24 -4L1004.24 847L1003.24 847L1003.24 -4L1004.24 -4Z" fill="url(#paint9_linear_408_1199)"/>
<path fill-rule="evenodd" clip-rule="evenodd" d="M1115.71 -4L1115.71 847L1114.71 847L1114.71 -4L1115.71 -4Z" fill="url(#paint10_linear_408_1199)"/>
<path fill-rule="evenodd" clip-rule="evenodd" d="M1227 -4L1227 769L1226 769L1226 -4L1227 -4Z" fill="url(#paint11_linear_408_1199)"/>
<defs>
<linearGradient id="paint0_linear_408_1199" x1="-1.77905e-05" y1="421.5" x2="0.654506" y2="421.5" gradientUnits="userSpaceOnUse">
<stop stop-color="#404047"/>
<stop offset="1" stop-color="#404047" stop-opacity="0"/>
</linearGradient>
<linearGradient id="paint1_linear_408_1199" x1="111.471" y1="421.5" x2="112.125" y2="421.5" gradientUnits="userSpaceOnUse">
<stop stop-color="#404047"/>
<stop offset="1" stop-color="#404047" stop-opacity="0"/>
</linearGradient>
<linearGradient id="paint2_linear_408_1199" x1="222.942" y1="421.5" x2="223.597" y2="421.5" gradientUnits="userSpaceOnUse">
<stop stop-color="#404047"/>
<stop offset="1" stop-color="#404047" stop-opacity="0"/>
</linearGradient>
<linearGradient id="paint3_linear_408_1199" x1="334.413" y1="421.5" x2="335.067" y2="421.5" gradientUnits="userSpaceOnUse">
<stop stop-color="#404047"/>
<stop offset="1" stop-color="#404047" stop-opacity="0"/>
</linearGradient>
<linearGradient id="paint4_linear_408_1199" x1="445.884" y1="421.5" x2="446.538" y2="421.5" gradientUnits="userSpaceOnUse">
<stop stop-color="#404047"/>
<stop offset="1" stop-color="#404047" stop-opacity="0"/>
</linearGradient>
<linearGradient id="paint5_linear_408_1199" x1="557.355" y1="421.5" x2="558.009" y2="421.5" gradientUnits="userSpaceOnUse">
<stop stop-color="#404047"/>
<stop offset="1" stop-color="#404047" stop-opacity="0"/>
</linearGradient>
<linearGradient id="paint6_linear_408_1199" x1="668.826" y1="421.5" x2="669.48" y2="421.5" gradientUnits="userSpaceOnUse">
<stop stop-color="#404047"/>
<stop offset="1" stop-color="#404047" stop-opacity="0"/>
</linearGradient>
<linearGradient id="paint7_linear_408_1199" x1="780.297" y1="421.5" x2="780.951" y2="421.5" gradientUnits="userSpaceOnUse">
<stop stop-color="#404047"/>
<stop offset="1" stop-color="#404047" stop-opacity="0"/>
</linearGradient>
<linearGradient id="paint8_linear_408_1199" x1="891.768" y1="421.5" x2="892.422" y2="421.5" gradientUnits="userSpaceOnUse">
<stop stop-color="#404047"/>
<stop offset="1" stop-color="#404047" stop-opacity="0"/>
</linearGradient>
<linearGradient id="paint9_linear_408_1199" x1="1003.24" y1="421.5" x2="1003.89" y2="421.5" gradientUnits="userSpaceOnUse">
<stop stop-color="#404047"/>
<stop offset="1" stop-color="#404047" stop-opacity="0"/>
</linearGradient>
<linearGradient id="paint10_linear_408_1199" x1="1114.71" y1="421.5" x2="1115.36" y2="421.5" gradientUnits="userSpaceOnUse">
<stop stop-color="#404047"/>
<stop offset="1" stop-color="#404047" stop-opacity="0"/>
</linearGradient>
<linearGradient id="paint11_linear_408_1199" x1="1226" y1="382.5" x2="1226.65" y2="382.5" gradientUnits="userSpaceOnUse">
<stop stop-color="#404047"/>
<stop offset="1" stop-color="#404047" stop-opacity="0"/>
</linearGradient>
</defs>
</svg>
