<svg width="45" height="46" viewBox="0 0 45 46" fill="none" xmlns="http://www.w3.org/2000/svg">
<path d="M34.4531 46H23.5547C17.7392 46 13.0079 41.1635 13.0079 35.2188V32.7032H10.5469C4.73132 32.7031 0 27.8666 0 21.9219V10.7812C0 4.83646 4.73132 0 10.5469 0H21.4453C27.2608 0 31.9922 4.83646 31.9922 10.7812V13.2968H34.4531C40.2686 13.2968 44.9999 18.1333 44.9999 24.0781V35.2187C45 41.1635 40.2687 46 34.4531 46ZM10.5469 3.59374C6.66981 3.59374 3.51562 6.81802 3.51562 10.7812V21.9219C3.51562 25.8851 6.66981 29.1093 10.5469 29.1093H14.7656C15.7365 29.1093 16.5235 29.9138 16.5235 30.9063V35.2188C16.5235 39.182 19.6777 42.4063 23.5547 42.4063H34.4531C38.3302 42.4063 41.4844 39.182 41.4844 35.2188V24.0781C41.4844 20.1149 38.3302 16.8907 34.4531 16.8907H30.2344C29.2635 16.8907 28.4765 16.0862 28.4765 15.0937V10.7812C28.4765 6.81802 25.3223 3.59374 21.4453 3.59374H10.5469ZM16.5235 24.0781C16.5235 20.1149 19.6777 16.8907 23.5547 16.8907C24.5256 16.8907 25.3126 16.0862 25.3126 15.0937C25.3126 14.1013 24.5256 13.2968 23.5547 13.2968C17.7392 13.2968 13.0079 18.1333 13.0079 24.0781C13.0079 25.0705 13.7949 25.875 14.7657 25.875C15.7365 25.875 16.5235 25.0706 16.5235 24.0781ZM31.9922 21.9219C31.9922 20.9294 31.2051 20.1249 30.2343 20.1249C29.2635 20.1249 28.4764 20.9294 28.4764 21.9219C28.4764 25.8851 25.3223 29.1093 21.4452 29.1093C20.4744 29.1093 19.6874 29.9138 19.6874 30.9063C19.6874 31.8987 20.4744 32.7032 21.4452 32.7032C27.2608 32.7031 31.9922 27.8666 31.9922 21.9219Z" fill="white"/>
</svg>
