<svg width="51" height="49" viewBox="0 0 51 49" fill="none" xmlns="http://www.w3.org/2000/svg">
<path fill-rule="evenodd" clip-rule="evenodd" d="M25.5 0C11.4113 0 0 11.2411 0 25.1197C0 36.2352 7.29937 45.6237 17.4356 48.952C18.7106 49.1718 19.1887 48.4182 19.1887 47.7588C19.1887 47.1622 19.1569 45.1841 19.1569 43.0803C12.75 44.2421 11.0925 41.5417 10.5825 40.1287C10.2956 39.4065 9.0525 37.1772 7.96875 36.5806C7.07625 36.1096 5.80125 34.9478 7.93687 34.9164C9.945 34.885 11.3794 36.7376 11.8575 37.4911C14.1525 41.2905 17.8181 40.2229 19.2844 39.5635C19.5075 37.9307 20.1769 36.8318 20.91 36.2038C15.2362 35.5758 9.3075 33.4092 9.3075 23.8009C9.3075 21.0691 10.2956 18.8084 11.9213 17.05C11.6663 16.422 10.7737 13.8472 12.1762 10.3933C12.1762 10.3933 14.3119 9.73388 19.1887 12.968C21.2288 12.4029 23.3963 12.1203 25.5638 12.1203C27.7313 12.1203 29.8988 12.4029 31.9388 12.968C36.8156 9.70248 38.9513 10.3933 38.9513 10.3933C40.3538 13.8472 39.4613 16.422 39.2062 17.05C40.8319 18.8084 41.82 21.0377 41.82 23.8009C41.82 33.4406 35.8594 35.5758 30.1856 36.2038C31.11 36.9888 31.9069 38.4959 31.9069 40.8509C31.9069 44.2107 31.875 46.911 31.875 47.7588C31.875 48.4182 32.3531 49.2032 33.6281 48.952C43.7006 45.6237 51 36.2038 51 25.1197C51 11.2411 39.5887 0 25.5 0Z" fill="white"/>
</svg>
