<svg width="181" height="33" viewBox="0 0 181 33" fill="none" xmlns="http://www.w3.org/2000/svg">
<path d="M38.6885 19.9414C35.7245 17.0666 30.8972 17.1435 27.9288 20.1105L25.7447 22.2936L23.6091 20.1589L27.6673 16.1025C31.1543 12.6171 31.1543 6.94436 27.6673 3.459L26.8258 2.61786C25.1339 0.92899 22.8884 0 20.5 0C18.1116 0 15.8639 0.92899 14.1764 2.61786L13.3349 3.459C9.84791 6.94436 9.84791 12.6171 13.3349 16.1025L17.3931 20.1589L15.2574 22.2936L12.9855 20.0227C11.5024 18.5403 9.55568 17.8001 7.60675 17.8001C5.65782 17.8001 3.71109 18.5403 2.22797 20.0227C0.790997 21.4612 0 23.3697 0 25.4012C0 27.4327 0.790997 29.3411 2.22797 30.7775C3.66275 32.2116 5.57213 33 7.60675 33C9.64137 33 11.5507 32.2116 12.9855 30.7775L15.2574 28.5066L17.5843 30.8368C18.3621 31.6142 19.3948 32.0447 20.4956 32.0447C21.5964 32.0447 22.6313 31.6164 23.4091 30.8389L25.7447 28.5044L27.9288 30.6874C29.3965 32.1545 31.352 32.9627 33.4328 32.9627C35.5136 32.9627 37.2867 32.2138 38.6885 30.8565C40.1782 29.4114 41 27.4722 41 25.399C41 23.3258 40.1782 21.3865 38.6885 19.9414V19.9414ZM9.87867 27.6698C9.27224 28.276 8.46586 28.6076 7.60675 28.6076C6.74764 28.6076 5.94126 28.2738 5.33483 27.6698C4.7284 27.0659 4.39443 26.2577 4.39443 25.399C4.39443 24.5403 4.7284 23.7343 5.33483 23.1281C5.94126 22.522 6.74764 22.1881 7.60675 22.1881C8.46586 22.1881 9.27224 22.522 9.87867 23.1281L12.1506 25.399L9.87867 27.6698V27.6698ZM20.4978 27.5381L19.7156 26.7562L18.3621 25.4012L20.4758 23.2862L20.6516 23.4202L22.6313 25.399L20.4934 27.5359L20.4978 27.5381ZM21.9875 15.5688L20.5022 17.0534L16.4439 12.9971C14.6708 11.2247 14.6708 8.33895 16.4439 6.56442L17.2855 5.72328C18.1446 4.86457 19.2871 4.39019 20.5022 4.39019C21.7173 4.39019 22.8598 4.86237 23.7189 5.72328L24.5604 6.56442C26.3336 8.33675 26.3336 11.2225 24.5604 12.9971L21.9875 15.5688V15.5688ZM35.63 27.705C35.0258 28.2914 34.2348 28.5813 33.4328 28.5813C32.5715 28.5813 31.7014 28.2474 31.0378 27.5842L28.8538 25.4012L31.0378 23.2182C32.3188 21.9378 34.3798 21.8829 35.63 23.0952C36.2606 23.7057 36.6078 24.5249 36.6078 25.4012C36.6078 26.2775 36.2606 27.0966 35.63 27.7072V27.705Z" fill="white"/>
<path d="M51.516 21.098C50.592 21.098 49.7427 20.8833 48.968 20.454C48.2027 20.0247 47.5913 19.4273 47.134 18.662C46.686 17.8873 46.462 17.0193 46.462 16.058C46.462 15.0967 46.686 14.2333 47.134 13.468C47.5913 12.7027 48.2027 12.1053 48.968 11.676C49.7427 11.2467 50.592 11.032 51.516 11.032C52.44 11.032 53.2847 11.2467 54.05 11.676C54.8247 12.1053 55.4313 12.7027 55.87 13.468C56.318 14.2333 56.542 15.0967 56.542 16.058C56.542 17.0193 56.318 17.8873 55.87 18.662C55.422 19.4273 54.8153 20.0247 54.05 20.454C53.2847 20.8833 52.44 21.098 51.516 21.098ZM51.516 18.914C52.3 18.914 52.9253 18.6527 53.392 18.13C53.868 17.6073 54.106 16.9167 54.106 16.058C54.106 15.19 53.868 14.4993 53.392 13.986C52.9253 13.4633 52.3 13.202 51.516 13.202C50.7227 13.202 50.088 13.4587 49.612 13.972C49.1453 14.4853 48.912 15.1807 48.912 16.058C48.912 16.926 49.1453 17.6213 49.612 18.144C50.088 18.6573 50.7227 18.914 51.516 18.914ZM62.6339 13.104C63.5485 13.104 64.2765 13.4027 64.8179 14C65.3685 14.588 65.6439 15.4 65.6439 16.436V21H63.2639V16.758C63.2639 16.2353 63.1285 15.8293 62.8579 15.54C62.5872 15.2507 62.2232 15.106 61.7659 15.106C61.3085 15.106 60.9445 15.2507 60.6739 15.54C60.4032 15.8293 60.2679 16.2353 60.2679 16.758V21H57.8739V13.188H60.2679V14.224C60.5105 13.8787 60.8372 13.608 61.2479 13.412C61.6585 13.2067 62.1205 13.104 62.6339 13.104ZM74.6715 16.968C74.6715 17.192 74.6575 17.4253 74.6295 17.668H69.2115C69.2488 18.1533 69.4028 18.5267 69.6735 18.788C69.9535 19.04 70.2941 19.166 70.6955 19.166C71.2928 19.166 71.7081 18.914 71.9415 18.41H74.4895C74.3588 18.9233 74.1208 19.3853 73.7755 19.796C73.4395 20.2067 73.0148 20.5287 72.5015 20.762C71.9881 20.9953 71.4141 21.112 70.7795 21.112C70.0141 21.112 69.3328 20.9487 68.7355 20.622C68.1381 20.2953 67.6715 19.8287 67.3355 19.222C66.9995 18.6153 66.8315 17.906 66.8315 17.094C66.8315 16.282 66.9948 15.5727 67.3215 14.966C67.6575 14.3593 68.1241 13.8927 68.7215 13.566C69.3188 13.2393 70.0048 13.076 70.7795 13.076C71.5355 13.076 72.2075 13.2347 72.7955 13.552C73.3835 13.8693 73.8408 14.322 74.1675 14.91C74.5035 15.498 74.6715 16.184 74.6715 16.968ZM72.2215 16.338C72.2215 15.9273 72.0815 15.6007 71.8015 15.358C71.5215 15.1153 71.1715 14.994 70.7515 14.994C70.3501 14.994 70.0095 15.1107 69.7295 15.344C69.4588 15.5773 69.2908 15.9087 69.2255 16.338H72.2215ZM81.2952 19.152H84.4312V21H78.9012V11.172H81.2952V19.152ZM86.7771 12.376C86.3571 12.376 86.0117 12.2547 85.7411 12.012C85.4797 11.76 85.3491 11.452 85.3491 11.088C85.3491 10.7147 85.4797 10.4067 85.7411 10.164C86.0117 9.912 86.3571 9.786 86.7771 9.786C87.1877 9.786 87.5237 9.912 87.7851 10.164C88.0557 10.4067 88.1911 10.7147 88.1911 11.088C88.1911 11.452 88.0557 11.76 87.7851 12.012C87.5237 12.2547 87.1877 12.376 86.7771 12.376ZM87.9671 13.188V21H85.5731V13.188H87.9671ZM94.462 13.104C95.3767 13.104 96.1047 13.4027 96.646 14C97.1967 14.588 97.472 15.4 97.472 16.436V21H95.092V16.758C95.092 16.2353 94.9567 15.8293 94.686 15.54C94.4153 15.2507 94.0513 15.106 93.594 15.106C93.1367 15.106 92.7727 15.2507 92.502 15.54C92.2313 15.8293 92.096 16.2353 92.096 16.758V21H89.702V13.188H92.096V14.224C92.3387 13.8787 92.6653 13.608 93.076 13.412C93.4867 13.2067 93.9487 13.104 94.462 13.104ZM106.5 16.968C106.5 17.192 106.486 17.4253 106.458 17.668H101.04C101.077 18.1533 101.231 18.5267 101.502 18.788C101.782 19.04 102.122 19.166 102.524 19.166C103.121 19.166 103.536 18.914 103.77 18.41H106.318C106.187 18.9233 105.949 19.3853 105.604 19.796C105.268 20.2067 104.843 20.5287 104.33 20.762C103.816 20.9953 103.242 21.112 102.608 21.112C101.842 21.112 101.161 20.9487 100.564 20.622C99.9662 20.2953 99.4996 19.8287 99.1636 19.222C98.8276 18.6153 98.6596 17.906 98.6596 17.094C98.6596 16.282 98.8229 15.5727 99.1496 14.966C99.4856 14.3593 99.9522 13.8927 100.55 13.566C101.147 13.2393 101.833 13.076 102.608 13.076C103.364 13.076 104.036 13.2347 104.624 13.552C105.212 13.8693 105.669 14.322 105.996 14.91C106.332 15.498 106.5 16.184 106.5 16.968ZM104.05 16.338C104.05 15.9273 103.91 15.6007 103.63 15.358C103.35 15.1153 103 14.994 102.58 14.994C102.178 14.994 101.838 15.1107 101.558 15.344C101.287 15.5773 101.119 15.9087 101.054 16.338H104.05ZM118.219 14.336C118.219 14.9053 118.089 15.428 117.827 15.904C117.566 16.3707 117.165 16.7487 116.623 17.038C116.082 17.3273 115.41 17.472 114.607 17.472H113.123V21H110.729V11.172H114.607C115.391 11.172 116.054 11.3073 116.595 11.578C117.137 11.8487 117.543 12.222 117.813 12.698C118.084 13.174 118.219 13.72 118.219 14.336ZM114.425 15.568C114.883 15.568 115.223 15.4607 115.447 15.246C115.671 15.0313 115.783 14.728 115.783 14.336C115.783 13.944 115.671 13.6407 115.447 13.426C115.223 13.2113 114.883 13.104 114.425 13.104H113.123V15.568H114.425ZM118.99 17.08C118.99 16.2773 119.139 15.5727 119.438 14.966C119.746 14.3593 120.161 13.8927 120.684 13.566C121.206 13.2393 121.79 13.076 122.434 13.076C122.984 13.076 123.465 13.188 123.876 13.412C124.296 13.636 124.618 13.93 124.842 14.294V13.188H127.236V21H124.842V19.894C124.608 20.258 124.282 20.552 123.862 20.776C123.451 21 122.97 21.112 122.42 21.112C121.785 21.112 121.206 20.9487 120.684 20.622C120.161 20.286 119.746 19.8147 119.438 19.208C119.139 18.592 118.99 17.8827 118.99 17.08ZM124.842 17.094C124.842 16.4967 124.674 16.0253 124.338 15.68C124.011 15.3347 123.61 15.162 123.134 15.162C122.658 15.162 122.252 15.3347 121.916 15.68C121.589 16.016 121.426 16.4827 121.426 17.08C121.426 17.6773 121.589 18.1533 121.916 18.508C122.252 18.8533 122.658 19.026 123.134 19.026C123.61 19.026 124.011 18.8533 124.338 18.508C124.674 18.1627 124.842 17.6913 124.842 17.094ZM128.492 17.094C128.492 16.282 128.655 15.5727 128.982 14.966C129.318 14.3593 129.78 13.8927 130.368 13.566C130.965 13.2393 131.646 13.076 132.412 13.076C133.392 13.076 134.208 13.3327 134.862 13.846C135.524 14.3593 135.958 15.0827 136.164 16.016H133.616C133.401 15.4187 132.986 15.12 132.37 15.12C131.931 15.12 131.581 15.2927 131.32 15.638C131.058 15.974 130.928 16.4593 130.928 17.094C130.928 17.7287 131.058 18.2187 131.32 18.564C131.581 18.9 131.931 19.068 132.37 19.068C132.986 19.068 133.401 18.7693 133.616 18.172H136.164C135.958 19.0867 135.524 19.8053 134.862 20.328C134.199 20.8507 133.382 21.112 132.412 21.112C131.646 21.112 130.965 20.9487 130.368 20.622C129.78 20.2953 129.318 19.8287 128.982 19.222C128.655 18.6153 128.492 17.906 128.492 17.094ZM142.218 21L139.838 17.724V21H137.444V10.64H139.838V16.366L142.204 13.188H145.158L141.91 17.108L145.186 21H142.218ZM145.622 17.08C145.622 16.2773 145.772 15.5727 146.07 14.966C146.378 14.3593 146.794 13.8927 147.316 13.566C147.839 13.2393 148.422 13.076 149.066 13.076C149.617 13.076 150.098 13.188 150.508 13.412C150.928 13.636 151.25 13.93 151.474 14.294V13.188H153.868V21H151.474V19.894C151.241 20.258 150.914 20.552 150.494 20.776C150.084 21 149.603 21.112 149.052 21.112C148.418 21.112 147.839 20.9487 147.316 20.622C146.794 20.286 146.378 19.8147 146.07 19.208C145.772 18.592 145.622 17.8827 145.622 17.08ZM151.474 17.094C151.474 16.4967 151.306 16.0253 150.97 15.68C150.644 15.3347 150.242 15.162 149.766 15.162C149.29 15.162 148.884 15.3347 148.548 15.68C148.222 16.016 148.058 16.4827 148.058 17.08C148.058 17.6773 148.222 18.1533 148.548 18.508C148.884 18.8533 149.29 19.026 149.766 19.026C150.242 19.026 150.644 18.8533 150.97 18.508C151.306 18.1627 151.474 17.6913 151.474 17.094ZM158.568 13.076C159.119 13.076 159.6 13.188 160.01 13.412C160.43 13.636 160.752 13.93 160.976 14.294V13.188H163.37V20.986C163.37 21.7047 163.226 22.3533 162.936 22.932C162.656 23.52 162.222 23.9867 161.634 24.332C161.056 24.6773 160.332 24.85 159.464 24.85C158.307 24.85 157.369 24.5747 156.65 24.024C155.932 23.4827 155.521 22.7453 155.418 21.812H157.784C157.859 22.1107 158.036 22.344 158.316 22.512C158.596 22.6893 158.942 22.778 159.352 22.778C159.847 22.778 160.239 22.6333 160.528 22.344C160.827 22.064 160.976 21.6113 160.976 20.986V19.88C160.743 20.244 160.421 20.5427 160.01 20.776C159.6 21 159.119 21.112 158.568 21.112C157.924 21.112 157.341 20.9487 156.818 20.622C156.296 20.286 155.88 19.8147 155.572 19.208C155.274 18.592 155.124 17.8827 155.124 17.08C155.124 16.2773 155.274 15.5727 155.572 14.966C155.88 14.3593 156.296 13.8927 156.818 13.566C157.341 13.2393 157.924 13.076 158.568 13.076ZM160.976 17.094C160.976 16.4967 160.808 16.0253 160.472 15.68C160.146 15.3347 159.744 15.162 159.268 15.162C158.792 15.162 158.386 15.3347 158.05 15.68C157.724 16.016 157.56 16.4827 157.56 17.08C157.56 17.6773 157.724 18.1533 158.05 18.508C158.386 18.8533 158.792 19.026 159.268 19.026C159.744 19.026 160.146 18.8533 160.472 18.508C160.808 18.1627 160.976 17.6913 160.976 17.094ZM172.466 16.968C172.466 17.192 172.452 17.4253 172.424 17.668H167.006C167.044 18.1533 167.198 18.5267 167.468 18.788C167.748 19.04 168.089 19.166 168.49 19.166C169.088 19.166 169.503 18.914 169.736 18.41H172.284C172.154 18.9233 171.916 19.3853 171.57 19.796C171.234 20.2067 170.81 20.5287 170.296 20.762C169.783 20.9953 169.209 21.112 168.574 21.112C167.809 21.112 167.128 20.9487 166.53 20.622C165.933 20.2953 165.466 19.8287 165.13 19.222C164.794 18.6153 164.626 17.906 164.626 17.094C164.626 16.282 164.79 15.5727 165.116 14.966C165.452 14.3593 165.919 13.8927 166.516 13.566C167.114 13.2393 167.8 13.076 168.574 13.076C169.33 13.076 170.002 13.2347 170.59 13.552C171.178 13.8693 171.636 14.322 171.962 14.91C172.298 15.498 172.466 16.184 172.466 16.968ZM170.016 16.338C170.016 15.9273 169.876 15.6007 169.596 15.358C169.316 15.1153 168.966 14.994 168.546 14.994C168.145 14.994 167.804 15.1107 167.524 15.344C167.254 15.5773 167.086 15.9087 167.02 16.338H170.016ZM176.907 21.112C176.226 21.112 175.619 20.9953 175.087 20.762C174.555 20.5287 174.135 20.2113 173.827 19.81C173.519 19.3993 173.347 18.942 173.309 18.438H175.675C175.703 18.7087 175.829 18.928 176.053 19.096C176.277 19.264 176.553 19.348 176.879 19.348C177.178 19.348 177.407 19.292 177.565 19.18C177.733 19.0587 177.817 18.9047 177.817 18.718C177.817 18.494 177.701 18.3307 177.467 18.228C177.234 18.116 176.856 17.9947 176.333 17.864C175.773 17.7333 175.307 17.598 174.933 17.458C174.56 17.3087 174.238 17.08 173.967 16.772C173.697 16.4547 173.561 16.03 173.561 15.498C173.561 15.05 173.683 14.644 173.925 14.28C174.177 13.9067 174.541 13.6127 175.017 13.398C175.503 13.1833 176.077 13.076 176.739 13.076C177.719 13.076 178.489 13.3187 179.049 13.804C179.619 14.2893 179.945 14.9333 180.029 15.736H177.817C177.78 15.4653 177.659 15.2507 177.453 15.092C177.257 14.9333 176.996 14.854 176.669 14.854C176.389 14.854 176.175 14.91 176.025 15.022C175.876 15.1247 175.801 15.2693 175.801 15.456C175.801 15.68 175.918 15.848 176.151 15.96C176.394 16.072 176.767 16.184 177.271 16.296C177.85 16.4453 178.321 16.5947 178.685 16.744C179.049 16.884 179.367 17.1173 179.637 17.444C179.917 17.7613 180.062 18.1907 180.071 18.732C180.071 19.1893 179.941 19.6 179.679 19.964C179.427 20.3187 179.059 20.5987 178.573 20.804C178.097 21.0093 177.542 21.112 176.907 21.112Z" fill="white"/>
</svg>
