<svg width="44" height="37" viewBox="0 0 44 37" fill="none" xmlns="http://www.w3.org/2000/svg">
<path d="M43.5546 4.33609C42.1394 4.94567 40.6516 5.37015 39.128 5.59904C39.8403 5.47682 40.8884 4.1935 41.3057 3.67406C41.9395 2.89054 42.4226 1.99608 42.7303 1.03613C42.7303 0.964834 42.8015 0.862983 42.7303 0.812057C42.6944 0.792445 42.6542 0.782168 42.6133 0.782168C42.5724 0.782168 42.5322 0.792445 42.4963 0.812057C40.8418 1.70877 39.0811 2.39317 37.2556 2.84907C37.192 2.86852 37.1243 2.87027 37.0597 2.85412C36.9952 2.83797 36.9363 2.80454 36.8893 2.75741C36.7472 2.58806 36.5942 2.42815 36.4314 2.27871C35.6868 1.61102 34.8421 1.06455 33.9281 0.659281C32.6942 0.152653 31.3616 -0.0667568 30.0306 0.0176222C28.7392 0.0992533 27.4784 0.445942 26.3266 1.03613C25.1923 1.65836 24.1954 2.50368 23.3959 3.52129C22.5548 4.56867 21.9476 5.78418 21.6151 7.08606C21.3409 8.32441 21.3098 9.6043 21.5235 10.8545C21.5235 11.0684 21.5235 11.099 21.3403 11.0684C14.0848 9.99899 8.13184 7.42217 3.2677 1.89167C3.054 1.64723 2.94207 1.64723 2.76907 1.89167C0.65246 5.11016 1.68024 10.2027 4.326 12.7184C4.68216 13.0545 5.0485 13.3804 5.43519 13.686C4.22212 13.5998 3.03868 13.2708 1.95499 12.7184C1.75147 12.586 1.63953 12.6573 1.62936 12.9017C1.60051 13.2406 1.60051 13.5814 1.62936 13.9202C1.84169 15.5443 2.48117 17.0829 3.48241 18.3785C4.48365 19.6741 5.81073 20.6803 7.32793 21.2942C7.69779 21.4528 8.08317 21.5723 8.47782 21.6507C7.35482 21.872 6.20304 21.9064 5.06885 21.7526C4.82463 21.7016 4.73304 21.834 4.82463 22.0683C6.3205 26.1423 9.56666 27.3849 11.9478 28.0775C12.2735 28.1284 12.5991 28.1284 12.9654 28.2099C12.9654 28.2099 12.9654 28.2099 12.9044 28.271C12.2022 29.5543 9.36313 30.42 8.0606 30.8682C5.68315 31.7229 3.14834 32.0496 0.632108 31.8256C0.235243 31.7645 0.143659 31.7747 0.0418987 31.8256C-0.0598616 31.8765 0.0418987 31.9885 0.153835 32.0904C0.662636 32.4265 1.17144 32.7219 1.70059 33.0071C3.27588 33.867 4.94129 34.5502 6.66649 35.0441C15.601 37.5089 25.6549 35.6959 32.3609 29.0247C37.6321 23.7896 39.4842 16.5684 39.4842 9.33696C39.4842 9.06196 39.82 8.899 40.0133 8.75641C41.3469 7.71641 42.5226 6.48819 43.5037 5.11016C43.6736 4.90474 43.7607 4.6432 43.7479 4.37683C43.7479 4.22406 43.7479 4.25461 43.5546 4.33609Z" fill="white"/>
</svg>
